# xmcd CD database file
#
# Track frame offsets:
#	150
#	15781
#	30236
#	45853
#	59702
#	74992
#	89731
#	106242
#	120429
#	137203
#	153059
#	168031
#	181692
#	198391
#
# Disc length: 2859 seconds
#
# Revision: 0
# Processed by: cddbd v1.5.2PL0 Copyright (c) Steve Scherf et al.
# Submitted via: CD2WAV32(JP) R3.22
#
DISCID=ab0b290e
DTITLE=美空ひばり - 美空ひばり大全集 ～共に歩んだ20年～
DYEAR=2012
DGENRE=Folk
TTITLE0=悲しき口笛
TTITLE1=東京キッド
TTITLE2=越後獅子の唄
TTITLE3=角兵衛獅子の唄
TTITLE4=私は街の子
TTITLE5=ひばりの花売娘
TTITLE6=あの丘越えて
TTITLE7=リンゴ追分
TTITLE8=旅の角兵衛獅子
TTITLE9=流れのギター姉妹
TTITLE10=お祭りマンボ
TTITLE11=あまんじゃくの歌
TTITLE12=日和下駄
TTITLE13=お夏清十郎
EXTD=
EXTT0=
EXTT1=
EXTT2=
EXTT3=
EXTT4=
EXTT5=
EXTT6=
EXTT7=
EXTT8=
EXTT9=
EXTT10=
EXTT11=
EXTT12=
EXTT13=
PLAYORDER=
